<?xml version="1.0" standalone="no"?>
<!DOCTYPE svg PUBLIC "-//W3C//DTD SVG 20010904//EN"
 "http://www.w3.org/TR/2001/REC-SVG-20010904/DTD/svg10.dtd">
<svg version="1.0" xmlns="http://www.w3.org/2000/svg"
 width="300.000000pt" height="41.000000pt" viewBox="0 0 300.000000 41.000000"
 preserveAspectRatio="xMidYMid meet">
<metadata>
Created by potrace 1.15, written by Peter Selinger 2001-2017
</metadata>
<g transform="translate(0.000000,41.000000) scale(0.100000,-0.100000)"
fill="#000000" stroke="none">
<path d="M0 205 l0 -205 1500 0 1500 0 0 205 0 205 -1500 0 -1500 0 0 -205z
m830 90 c0 -11 -17 -15 -72 -17 -65 -3 -73 -5 -73 -23 0 -18 8 -21 68 -25 73
-5 87 -15 87 -62 0 -44 -34 -59 -121 -56 -60 2 -74 6 -77 20 -3 15 8 18 80 20
66 2 83 6 83 18 0 11 -16 16 -63 20 -51 4 -68 10 -83 29 -23 28 -24 40 -3 69
13 20 24 22 95 22 62 0 79 -3 79 -15z m1180 0 c0 -12 -14 -15 -70 -15 l-70 0
0 -65 0 -65 70 0 c63 0 70 -2 70 -20 0 -18 -7 -20 -72 -20 -97 0 -108 11 -108
105 0 42 5 76 12 83 7 7 43 12 90 12 63 0 78 -3 78 -15z m-992 -47 c7 -7 12
-36 12 -65 0 -60 -14 -73 -74 -73 -29 0 -36 4 -36 19 0 16 8 20 38 23 35 3 37
5 37 38 0 35 0 35 -45 35 l-45 0 -3 -82 c-2 -65 -6 -83 -17 -83 -12 0 -15 18
-15 88 0 55 4 92 12 100 16 16 120 16 136 0z m202 -7 c17 -33 12 -89 -10 -111
-25 -25 -111 -28 -134 -4 -19 19 -22 104 -4 122 7 7 39 12 75 12 51 0 64 -3
73 -19z m480 4 c0 -11 -13 -15 -52 -16 l-53 -2 48 -6 c52 -8 67 -21 67 -63 0
-36 -24 -48 -94 -48 -49 0 -56 3 -56 20 0 16 8 19 55 22 67 4 77 22 15 26 -49
4 -70 16 -70 41 0 30 23 41 82 41 45 0 58 -3 58 -15z m488 3 c18 -18 15 -103
-4 -122 -23 -24 -109 -21 -134 4 -22 22 -27 78 -10 111 9 16 22 19 73 19 36 0
68 -5 75 -12z"/>
</g>
</svg>
